<?xml version="1.0" standalone="no"?>
<svg xmlns:xlink="http://www.w3.org/1999/xlink" id="wave" style="transform:rotate(0deg); transition: 0.3s" viewBox="0 0 1440 490" version="1.1" xmlns="http://www.w3.org/2000/svg"><defs><linearGradient id="sw-gradient-0" x1="0" x2="0" y1="1" y2="0"><stop stop-color="rgba(0, 84.657, 183.509, 1)" offset="0%"/><stop stop-color="rgba(72.035, 11, 255, 1)" offset="100%"/></linearGradient></defs><path style="transform:translate(0, 0px); opacity:1" fill="url(#sw-gradient-0)" d="M0,49L26.7,65.3C53.3,82,107,114,160,122.5C213.3,131,267,114,320,130.7C373.3,147,427,196,480,228.7C533.3,261,587,278,640,253.2C693.3,229,747,163,800,114.3C853.3,65,907,33,960,24.5C1013.3,16,1067,33,1120,57.2C1173.3,82,1227,114,1280,130.7C1333.3,147,1387,147,1440,122.5C1493.3,98,1547,49,1600,32.7C1653.3,16,1707,33,1760,49C1813.3,65,1867,82,1920,81.7C1973.3,82,2027,65,2080,98C2133.3,131,2187,212,2240,245C2293.3,278,2347,261,2400,269.5C2453.3,278,2507,310,2560,334.8C2613.3,359,2667,376,2720,383.8C2773.3,392,2827,392,2880,351.2C2933.3,310,2987,229,3040,171.5C3093.3,114,3147,82,3200,81.7C3253.3,82,3307,114,3360,147C3413.3,180,3467,212,3520,253.2C3573.3,294,3627,343,3680,302.2C3733.3,261,3787,131,3813,65.3L3840,0L3840,490L3813.3,490C3786.7,490,3733,490,3680,490C3626.7,490,3573,490,3520,490C3466.7,490,3413,490,3360,490C3306.7,490,3253,490,3200,490C3146.7,490,3093,490,3040,490C2986.7,490,2933,490,2880,490C2826.7,490,2773,490,2720,490C2666.7,490,2613,490,2560,490C2506.7,490,2453,490,2400,490C2346.7,490,2293,490,2240,490C2186.7,490,2133,490,2080,490C2026.7,490,1973,490,1920,490C1866.7,490,1813,490,1760,490C1706.7,490,1653,490,1600,490C1546.7,490,1493,490,1440,490C1386.7,490,1333,490,1280,490C1226.7,490,1173,490,1120,490C1066.7,490,1013,490,960,490C906.7,490,853,490,800,490C746.7,490,693,490,640,490C586.7,490,533,490,480,490C426.7,490,373,490,320,490C266.7,490,213,490,160,490C106.7,490,53,490,27,490L0,490Z"/><defs><linearGradient id="sw-gradient-1" x1="0" x2="0" y1="1" y2="0"><stop stop-color="rgba(62, 151.631, 243, 1)" offset="0%"/><stop stop-color="rgba(11, 16.098, 255, 1)" offset="100%"/></linearGradient></defs><path style="transform:translate(0, 50px); opacity:0.9" fill="url(#sw-gradient-1)" d="M0,441L26.7,416.5C53.3,392,107,343,160,269.5C213.3,196,267,98,320,57.2C373.3,16,427,33,480,98C533.3,163,587,278,640,294C693.3,310,747,229,800,196C853.3,163,907,180,960,220.5C1013.3,261,1067,327,1120,318.5C1173.3,310,1227,229,1280,212.3C1333.3,196,1387,245,1440,236.8C1493.3,229,1547,163,1600,163.3C1653.3,163,1707,229,1760,269.5C1813.3,310,1867,327,1920,334.8C1973.3,343,2027,343,2080,351.2C2133.3,359,2187,376,2240,359.3C2293.3,343,2347,294,2400,253.2C2453.3,212,2507,180,2560,147C2613.3,114,2667,82,2720,122.5C2773.3,163,2827,278,2880,310.3C2933.3,343,2987,294,3040,245C3093.3,196,3147,147,3200,171.5C3253.3,196,3307,294,3360,351.2C3413.3,408,3467,425,3520,383.8C3573.3,343,3627,245,3680,187.8C3733.3,131,3787,114,3813,106.2L3840,98L3840,490L3813.3,490C3786.7,490,3733,490,3680,490C3626.7,490,3573,490,3520,490C3466.7,490,3413,490,3360,490C3306.7,490,3253,490,3200,490C3146.7,490,3093,490,3040,490C2986.7,490,2933,490,2880,490C2826.7,490,2773,490,2720,490C2666.7,490,2613,490,2560,490C2506.7,490,2453,490,2400,490C2346.7,490,2293,490,2240,490C2186.7,490,2133,490,2080,490C2026.7,490,1973,490,1920,490C1866.7,490,1813,490,1760,490C1706.7,490,1653,490,1600,490C1546.7,490,1493,490,1440,490C1386.7,490,1333,490,1280,490C1226.7,490,1173,490,1120,490C1066.7,490,1013,490,960,490C906.7,490,853,490,800,490C746.7,490,693,490,640,490C586.7,490,533,490,480,490C426.7,490,373,490,320,490C266.7,490,213,490,160,490C106.7,490,53,490,27,490L0,490Z"/><defs><linearGradient id="sw-gradient-2" x1="0" x2="0" y1="1" y2="0"><stop stop-color="rgba(62, 194.557, 243, 1)" offset="0%"/><stop stop-color="rgba(11, 164.895, 255, 1)" offset="100%"/></linearGradient></defs><path style="transform:translate(0, 100px); opacity:0.8" fill="url(#sw-gradient-2)" d="M0,294L26.7,294C53.3,294,107,294,160,302.2C213.3,310,267,327,320,318.5C373.3,310,427,278,480,294C533.3,310,587,376,640,408.3C693.3,441,747,441,800,392C853.3,343,907,245,960,171.5C1013.3,98,1067,49,1120,81.7C1173.3,114,1227,229,1280,261.3C1333.3,294,1387,245,1440,236.8C1493.3,229,1547,261,1600,228.7C1653.3,196,1707,98,1760,89.8C1813.3,82,1867,163,1920,220.5C1973.3,278,2027,310,2080,318.5C2133.3,327,2187,310,2240,277.7C2293.3,245,2347,196,2400,196C2453.3,196,2507,245,2560,294C2613.3,343,2667,392,2720,343C2773.3,294,2827,147,2880,106.2C2933.3,65,2987,131,3040,204.2C3093.3,278,3147,359,3200,392C3253.3,425,3307,408,3360,359.3C3413.3,310,3467,229,3520,196C3573.3,163,3627,180,3680,204.2C3733.3,229,3787,261,3813,277.7L3840,294L3840,490L3813.3,490C3786.7,490,3733,490,3680,490C3626.7,490,3573,490,3520,490C3466.7,490,3413,490,3360,490C3306.7,490,3253,490,3200,490C3146.7,490,3093,490,3040,490C2986.7,490,2933,490,2880,490C2826.7,490,2773,490,2720,490C2666.7,490,2613,490,2560,490C2506.7,490,2453,490,2400,490C2346.7,490,2293,490,2240,490C2186.7,490,2133,490,2080,490C2026.7,490,1973,490,1920,490C1866.7,490,1813,490,1760,490C1706.7,490,1653,490,1600,490C1546.7,490,1493,490,1440,490C1386.7,490,1333,490,1280,490C1226.7,490,1173,490,1120,490C1066.7,490,1013,490,960,490C906.7,490,853,490,800,490C746.7,490,693,490,640,490C586.7,490,533,490,480,490C426.7,490,373,490,320,490C266.7,490,213,490,160,490C106.7,490,53,490,27,490L0,490Z"/></svg>